<mxfile host="app.diagrams.net" modified="2023-12-27T09:10:25.044Z" agent="Mozilla/5.0 (X11; Linux x86_64) AppleWebKit/537.36 (KHTML, like Gecko) Chrome/120.0.0.0 Safari/537.36" version="22.1.12" etag="fM4vR0IurqJao2OfbUKZ" type="github">
  <diagram name="Page-1" id="cMjG6py10PykPtBgGxuJ">
    <mxGraphModel>
      <root>
        <mxCell id="0" />
        <mxCell id="1" parent="0" />
      </root>
    </mxGraphModel>
  </diagram>
</mxfile>
